# Blender 4.5.2 LTS
# www.blender.org
o Pond_Mesh
v 0.754950 -0.000000 -1.034937
v 6.004951 -0.000000 -2.011207
v 4.504951 -0.000000 -1.611207
v 6.004951 -0.000000 1.988793
v 3.004950 -0.000000 -1.292035
v 1.504950 -0.000000 -1.092140
v 0.004950 -0.000000 -1.011207
v 0.004950 -0.000000 1.988793
v 2.254950 -0.000000 -1.177734
v 3.754950 -0.000000 -1.437268
v 5.254951 -0.000000 -1.794471
v 0.379950 -0.000000 -1.018305
v 1.129950 -0.000000 -1.061103
v 1.879950 -0.000000 -1.118201
v 2.629950 -0.000000 -1.237268
v 3.379950 -0.000000 -1.362268
v 4.129951 -0.000000 -1.512268
v 4.879951 -0.000000 -1.700403
v 5.629951 -0.000000 -1.888538
v -0.745050 -0.000000 -1.034937
v -5.995049 -0.000000 -2.011207
v -4.495049 -0.000000 -1.611207
v -5.995049 -0.000000 1.988793
v -2.995050 -0.000000 -1.292035
v -1.495050 -0.000000 -1.092140
v 0.754950 0.600000 -1.034937
v -2.245050 -0.000000 -1.177734
v -3.745050 -0.000000 -1.437268
v -5.245049 -0.000000 -1.794471
v -0.370050 -0.000000 -1.018305
v -1.120050 -0.000000 -1.061103
v -1.870050 -0.000000 -1.118201
v -2.620050 -0.000000 -1.237268
v -3.370050 -0.000000 -1.362268
v -4.120049 -0.000000 -1.512268
v -4.870049 -0.000000 -1.700403
v -5.620049 -0.000000 -1.888538
v 6.004951 0.600000 -2.011207
v 4.504951 0.600000 -1.611207
v 6.004951 0.600000 1.988793
v 3.004950 0.600000 -1.292035
v 1.504950 0.600000 -1.092140
v 0.004950 0.600000 -1.011207
v 0.004950 0.600000 1.988793
v 2.254950 0.600000 -1.177734
v 3.754950 0.600000 -1.437268
v 5.254951 0.600000 -1.794471
v 0.379950 0.600000 -1.018305
v 1.129950 0.600000 -1.061103
v 1.879950 0.600000 -1.118201
v 2.629950 0.600000 -1.237268
v 3.379950 0.600000 -1.362268
v 4.129951 0.600000 -1.512268
v 4.879951 0.600000 -1.700403
v 5.629951 0.600000 -1.888538
v -0.745050 0.600000 -1.034937
v -5.995049 0.600000 -2.011207
v -4.495049 0.600000 -1.611207
v -5.995049 0.600000 1.988793
v -2.995050 0.600000 -1.292035
v -1.495050 0.600000 -1.092140
v -2.245050 0.600000 -1.177734
v -3.745050 0.600000 -1.437268
v -5.245049 0.600000 -1.794471
v -0.370050 0.600000 -1.018305
v -1.120050 0.600000 -1.061103
v -1.870050 0.600000 -1.118201
v -2.620050 0.600000 -1.237268
v -3.370050 0.600000 -1.362268
v -4.120049 0.600000 -1.512268
v -4.870049 0.600000 -1.700403
v -5.620049 0.600000 -1.888538
v 8.404950 0.592119 -4.773653
v 8.404950 0.592119 3.844461
v 0.004950 0.592119 3.844461
v -8.395050 0.592119 -4.773653
v -8.395050 0.592119 3.844461
v 0.004950 0.592119 -4.773653
vn -0.0000 1.0000 -0.0000
vn 0.0014 1.0000 -0.0015
vn -0.0000 1.0000 -0.0022
vn -0.0003 1.0000 -0.0026
vn 0.0570 -0.0000 0.9984
vn 0.0316 -0.0000 0.9995
vn -0.0760 -0.0000 0.9971
vn -0.0759 -0.0000 0.9971
vn 0.2433 -0.0000 0.9700
vn 0.2257 -0.0000 0.9742
vn -0.0000 -0.0000 1.0000
vn -0.1132 -0.0000 0.9936
vn -0.1568 -0.0000 0.9876
vn 0.2433 -0.0000 0.9699
vn 0.2374 -0.0000 0.9714
vn 0.1507 -0.0000 0.9886
vn 0.1568 -0.0000 0.9876
vn -0.1507 -0.0000 0.9886
vn -0.1643 -0.0000 0.9864
vn 0.3109 -0.0000 0.9504
vn 0.2773 -0.0000 0.9608
vn -0.1901 -0.0000 0.9818
vn -0.1961 -0.0000 0.9806
vn 0.0760 -0.0000 0.9971
vn -0.2257 -0.0000 0.9742
vn -0.2433 -0.0000 0.9700
vn -0.0316 -0.0000 0.9995
vn -0.0570 -0.0000 0.9984
vn -0.2374 -0.0000 0.9714
vn -0.2433 -0.0000 0.9699
vn -0.0000 -0.0000 -1.0000
vn -0.2773 -0.0000 0.9608
vn -0.3109 -0.0000 0.9504
vn 0.1901 -0.0000 0.9818
vn 0.1643 -0.0000 0.9864
vn 0.1961 -0.0000 0.9806
vn -1.0000 -0.0000 -0.0000
vn 0.0759 -0.0000 0.9971
vn 0.1132 -0.0000 0.9936
vn 1.0000 -0.0000 -0.0000
vn -0.0016 1.0000 0.0022
vn -0.0000 1.0000 0.0042
vn 0.0016 1.0000 0.0022
vn 0.0019 1.0000 0.0018
vn 0.0009 1.0000 -0.0021
vn -0.0009 1.0000 -0.0021
vn -0.0019 1.0000 0.0018
vn -0.0003 1.0000 -0.0020
vn -0.0004 1.0000 -0.0019
vn -0.0005 1.0000 -0.0018
vn -0.0002 1.0000 -0.0021
vn -0.0001 1.0000 -0.0021
vn -0.0000 1.0000 -0.0021
vn 0.0001 1.0000 -0.0021
vn 0.0002 1.0000 -0.0021
vn 0.0003 1.0000 -0.0020
vn 0.0004 1.0000 -0.0019
vn -0.0010 1.0000 -0.0037
vn 0.0005 1.0000 -0.0018
vn 0.0003 1.0000 -0.0026
vn 0.0010 1.0000 -0.0037
vn -0.0014 1.0000 -0.0015
vt 0.000000 0.000000
s 1
f 4/1/1 16/1/1 5/1/1
f 34/1/1 23/1/1 24/1/1
f 73/1/2 78/1/3 47/1/4
f 1/1/5 48/1/6 12/1/6
f 31/1/7 61/1/8 25/1/8
f 3/1/9 53/1/10 17/1/10
f 12/1/6 43/1/11 7/1/11
f 32/1/12 62/1/13 27/1/13
f 11/1/14 54/1/15 18/1/15
f 15/1/16 45/1/17 9/1/17
f 33/1/18 60/1/19 24/1/19
f 2/1/20 55/1/21 19/1/21
f 18/1/15 39/1/9 3/1/9
f 34/1/22 63/1/23 28/1/23
f 25/1/8 67/1/12 32/1/12
f 13/1/24 26/1/5 1/1/5
f 35/1/25 58/1/26 22/1/26
f 30/1/27 56/1/28 20/1/28
f 19/1/21 47/1/14 11/1/14
f 36/1/29 64/1/30 29/1/30
f 23/1/31 44/1/31 8/1/31
f 8/1/31 40/1/31 4/1/31
f 37/1/32 57/1/33 21/1/33
f 27/1/13 68/1/18 33/1/18
f 16/1/34 41/1/35 5/1/35
f 7/1/11 65/1/27 30/1/27
f 22/1/26 71/1/29 36/1/29
f 17/1/10 46/1/36 10/1/36
f 20/1/28 66/1/7 31/1/7
f 4/1/37 38/1/37 2/1/37
f 29/1/30 72/1/32 37/1/32
f 6/1/38 49/1/24 13/1/24
f 24/1/19 69/1/22 34/1/22
f 9/1/17 50/1/39 14/1/39
f 14/1/39 42/1/38 6/1/38
f 28/1/23 70/1/25 35/1/25
f 5/1/35 51/1/16 15/1/16
f 21/1/40 59/1/40 23/1/40
f 10/1/36 52/1/34 16/1/34
f 59/1/41 75/1/42 44/1/42
f 40/1/43 75/1/42 74/1/44
f 38/1/45 74/1/44 73/1/2
f 57/1/46 77/1/47 59/1/41
f 12/1/1 7/1/1 8/1/1
f 8/1/1 4/1/1 15/1/1
f 4/1/1 2/1/1 19/1/1
f 4/1/1 19/1/1 11/1/1
f 1/1/1 12/1/1 8/1/1
f 14/1/1 6/1/1 8/1/1
f 6/1/1 13/1/1 8/1/1
f 13/1/1 1/1/1 8/1/1
f 4/1/1 11/1/1 18/1/1
f 18/1/1 3/1/1 4/1/1
f 3/1/1 17/1/1 4/1/1
f 5/1/1 15/1/1 4/1/1
f 15/1/1 9/1/1 8/1/1
f 9/1/1 14/1/1 8/1/1
f 4/1/1 17/1/1 10/1/1
f 16/1/1 4/1/1 10/1/1
f 31/1/1 25/1/1 8/1/1
f 25/1/1 32/1/1 8/1/1
f 27/1/1 33/1/1 8/1/1
f 33/1/1 24/1/1 23/1/1
f 8/1/1 33/1/1 23/1/1
f 32/1/1 27/1/1 8/1/1
f 8/1/1 7/1/1 30/1/1
f 21/1/1 23/1/1 37/1/1
f 37/1/1 23/1/1 29/1/1
f 29/1/1 23/1/1 36/1/1
f 8/1/1 30/1/1 20/1/1
f 8/1/1 20/1/1 31/1/1
f 36/1/1 23/1/1 22/1/1
f 35/1/1 22/1/1 23/1/1
f 35/1/1 23/1/1 28/1/1
f 28/1/1 23/1/1 34/1/1
f 50/1/48 45/1/48 78/1/3
f 45/1/48 51/1/48 78/1/3
f 51/1/48 41/1/48 78/1/3
f 41/1/48 52/1/49 78/1/3
f 46/1/49 53/1/50 78/1/3
f 53/1/50 39/1/50 78/1/3
f 52/1/49 46/1/49 78/1/3
f 42/1/51 50/1/48 78/1/3
f 26/1/52 49/1/51 78/1/3
f 49/1/51 42/1/51 78/1/3
f 43/1/53 48/1/52 78/1/3
f 48/1/52 26/1/52 78/1/3
f 56/1/54 65/1/54 78/1/3
f 65/1/54 43/1/53 78/1/3
f 61/1/55 66/1/55 78/1/3
f 66/1/55 56/1/54 78/1/3
f 62/1/56 67/1/56 78/1/3
f 67/1/56 61/1/55 78/1/3
f 69/1/57 60/1/56 78/1/3
f 60/1/56 68/1/56 78/1/3
f 68/1/56 62/1/56 78/1/3
f 39/1/50 54/1/50 78/1/3
f 47/1/4 55/1/58 73/1/2
f 55/1/58 38/1/45 73/1/2
f 54/1/50 47/1/4 78/1/3
f 63/1/57 69/1/57 78/1/3
f 58/1/59 70/1/59 78/1/3
f 70/1/59 63/1/57 78/1/3
f 64/1/60 71/1/59 78/1/3
f 71/1/59 58/1/59 78/1/3
f 57/1/46 72/1/61 76/1/62
f 72/1/61 64/1/60 76/1/62
f 78/1/3 76/1/62 64/1/60
f 1/1/5 26/1/5 48/1/6
f 31/1/7 66/1/7 61/1/8
f 3/1/9 39/1/9 53/1/10
f 12/1/6 48/1/6 43/1/11
f 32/1/12 67/1/12 62/1/13
f 11/1/14 47/1/14 54/1/15
f 15/1/16 51/1/16 45/1/17
f 33/1/18 68/1/18 60/1/19
f 2/1/20 38/1/20 55/1/21
f 18/1/15 54/1/15 39/1/9
f 34/1/22 69/1/22 63/1/23
f 25/1/8 61/1/8 67/1/12
f 13/1/24 49/1/24 26/1/5
f 35/1/25 70/1/25 58/1/26
f 30/1/27 65/1/27 56/1/28
f 19/1/21 55/1/21 47/1/14
f 36/1/29 71/1/29 64/1/30
f 23/1/31 59/1/31 44/1/31
f 8/1/31 44/1/31 40/1/31
f 37/1/32 72/1/32 57/1/33
f 27/1/13 62/1/13 68/1/18
f 16/1/34 52/1/34 41/1/35
f 7/1/11 43/1/11 65/1/27
f 22/1/26 58/1/26 71/1/29
f 17/1/10 53/1/10 46/1/36
f 20/1/28 56/1/28 66/1/7
f 4/1/37 40/1/37 38/1/37
f 29/1/30 64/1/30 72/1/32
f 6/1/38 42/1/38 49/1/24
f 24/1/19 60/1/19 69/1/22
f 9/1/17 45/1/17 50/1/39
f 14/1/39 50/1/39 42/1/38
f 28/1/23 63/1/23 70/1/25
f 5/1/35 41/1/35 51/1/16
f 21/1/40 57/1/40 59/1/40
f 10/1/36 46/1/36 52/1/34
f 59/1/41 77/1/47 75/1/42
f 40/1/43 44/1/42 75/1/42
f 38/1/45 40/1/43 74/1/44
f 57/1/46 76/1/62 77/1/47
